<?xml version="1.0" encoding="UTF-8"?><!DOCTYPE svg PUBLIC "-//W3C//DTD SVG 1.1//EN" "http://www.w3.org/Graphics/SVG/1.1/DTD/svg11.dtd"><svg xmlns="http://www.w3.org/2000/svg" xmlns:xlink="http://www.w3.org/1999/xlink"><defs>
        <path id="a" d="M0 0h800v800H0z"/>
    </defs><symbol id="icon-facebook" viewBox="0 0 10 19">
    <title>
        facebook
    </title>
    <path d="M9.766.157v2.946H8.014c-.64 0-1.071.134-1.295.402-.223.268-.335.67-.335 1.205v2.11h3.27l-.435 3.303H6.384v8.471H2.97v-8.47H.123V6.82H2.97V4.387c0-1.384.387-2.457 1.161-3.22C4.904.404 5.934.023 7.222.023c1.093 0 1.941.045 2.544.134z" fill-rule="evenodd"/>
</symbol><symbol id="icon-Instagram" viewBox="0 0 800 800">
    
    <clipPath id="b">
        <use xlink:href="#a" overflow="visible"/>
    </clipPath>
    <path clip-path="url(#b)" d="M400.003 72.068c106.804 0 119.451.408 161.633 2.332 38.997 1.781 60.178 8.298 74.274 13.774 18.673 7.257 31.996 15.926 45.993 29.923 13.999 13.997 22.669 27.317 29.923 45.99 5.477 14.097 11.993 35.277 13.771 74.275 1.924 42.181 2.332 54.829 2.332 161.636s-.408 119.457-2.332 161.636c-1.778 39-8.295 60.181-13.771 74.274-7.254 18.669-15.924 31.993-29.923 45.993-13.997 13.996-27.32 22.666-45.993 29.923-14.097 5.476-35.277 11.993-74.274 13.771-42.175 1.927-54.82 2.331-161.633 2.331-106.815 0-119.46-.404-161.636-2.331-38.997-1.778-60.178-8.296-74.275-13.771-18.669-7.257-31.996-15.927-45.993-29.923-13.996-14-22.663-27.324-29.92-45.993-5.476-14.094-11.996-35.274-13.774-74.274-1.924-42.179-2.332-54.829-2.332-161.636s.408-119.455 2.332-161.636c1.778-38.998 8.298-60.178 13.774-74.275 7.257-18.672 15.924-31.993 29.92-45.99 13.997-13.997 27.324-22.666 45.993-29.923 14.097-5.476 35.278-11.994 74.275-13.774 42.182-1.924 54.829-2.332 161.636-2.332m0-72.071c-108.636 0-122.258.459-164.92 2.408-42.577 1.942-71.654 8.706-97.096 18.593C111.683 31.22 89.376 44.896 67.14 67.133 44.903 89.37 31.223 111.68 21.004 137.98c-9.893 25.449-16.654 54.522-18.596 97.1C.46 277.746.003 291.365.003 399.997c0 108.636.457 122.255 2.405 164.917 1.942 42.58 8.703 71.654 18.596 97.1 10.219 26.303 23.899 48.61 46.136 70.85 22.236 22.237 44.543 35.914 70.847 46.136 25.442 9.887 54.519 16.647 97.096 18.593 42.663 1.945 56.285 2.408 164.92 2.408 108.633 0 122.255-.463 164.917-2.408 42.578-1.945 71.654-8.706 97.097-18.593 26.304-10.222 48.61-23.898 70.851-46.136 22.236-22.239 35.913-44.547 46.135-70.85 9.891-25.445 16.651-54.52 18.594-97.1 1.947-42.662 2.404-56.281 2.404-164.917 0-108.633-.457-122.252-2.404-164.917-1.942-42.577-8.703-71.651-18.594-97.099-10.222-26.3-23.898-48.61-46.135-70.847-22.24-22.237-44.547-35.914-70.851-46.135-25.442-9.887-54.519-16.651-97.097-18.593C522.258.457 508.636-.003 400.003-.003"/>
    <path clip-path="url(#b)" d="M400.003 194.594c-113.442 0-205.406 91.961-205.406 205.403S286.561 605.4 400.003 605.4c113.439 0 205.403-91.961 205.403-205.403s-91.964-205.403-205.403-205.403m0 338.735c-73.639 0-133.335-59.693-133.335-133.332s59.696-133.333 133.335-133.333 133.332 59.694 133.332 133.333-59.693 133.332-133.332 133.332"/>
    <path clip-path="url(#b)" d="M661.523 186.479c0 26.507-21.488 47.998-48.002 47.998-26.508 0-47.998-21.491-47.998-47.998 0-26.514 21.49-48.002 47.998-48.002 26.514 0 48.002 21.488 48.002 48.002"/>
</symbol><symbol id="icon-twitter" viewBox="0 0 512 512">
    <path d="M512 97.209c-18.838 8.354-39.082 14.001-60.329 16.54 21.687-13 38.343-33.585 46.187-58.114a210.32 210.32 0 0 1-66.705 25.489c-19.16-20.415-46.461-33.17-76.674-33.17-58.012 0-105.043 47.029-105.043 105.039 0 8.233.929 16.25 2.72 23.939-87.3-4.382-164.701-46.2-216.509-109.753-9.042 15.514-14.224 33.558-14.224 52.809 0 36.444 18.544 68.596 46.73 87.433a104.614 104.614 0 0 1-47.577-13.139c-.01.438-.01.878-.01 1.321 0 50.894 36.209 93.348 84.261 103a105.286 105.286 0 0 1-27.674 3.686c-6.77 0-13.349-.66-19.764-1.887 13.367 41.73 52.159 72.104 98.126 72.949-35.95 28.175-81.243 44.967-130.458 44.967a212.85 212.85 0 0 1-25.059-1.471c46.486 29.806 101.701 47.197 161.021 47.197 193.211 0 298.868-160.063 298.868-298.873 0-4.554-.104-9.084-.305-13.59 20.528-14.808 38.336-33.308 52.418-54.372z"/>
</symbol></svg>